<svg width="636" height="145" viewBox="0 0 636 145" fill="none" xmlns="http://www.w3.org/2000/svg">
<mask id="mask0_3754_2" style="mask-type:luminance" maskUnits="userSpaceOnUse" x="0" y="0" width="636" height="145">
<path d="M635.769 0H0V145H635.769V0Z" fill="white"/>
</mask>
<g mask="url(#mask0_3754_2)">
<path d="M28.9603 54.7129C29.5795 51.0592 32.5704 49.2389 37.9198 49.2389C48.6976 49.2389 57.7361 49.5819 65.0223 50.281L67.8156 32.3555C58.8956 30.0999 49.9097 28.9788 40.8316 28.9788C31.2133 28.9788 23.6505 30.799 18.1562 34.4527C12.6487 38.1064 9.2362 43.9628 7.91862 52.0353L6.86456 58.6699C6.6274 60.3847 6.52199 62.0466 6.52199 63.6822C6.52199 69.6574 8.51153 74.5509 12.517 78.3497C16.5092 82.1617 21.9508 84.0611 28.8549 84.0611H33.5059C36.3782 84.0611 38.4468 84.3777 39.7249 84.9976C41.0029 85.6175 41.6485 86.6991 41.6485 88.2556C41.6485 88.8755 41.609 89.3767 41.5299 89.7593L41.2928 91.0387C40.8975 93.1359 39.8435 94.5869 38.0911 95.4047C36.3519 96.2225 33.2688 96.6314 28.8417 96.6314C18.6832 96.6314 10.0004 96.2752 2.79326 95.5893L0 113.515C8.22166 115.77 18.0244 116.892 29.4214 116.892C36.8657 116.892 42.8607 116.074 47.3932 114.451C51.9256 112.816 55.2986 110.455 57.5121 107.355C59.7257 104.255 61.2145 100.245 61.9919 95.3651L63.2699 87.2135C63.5071 85.578 63.6125 84.0743 63.6125 82.6761C63.6125 76.7801 61.5044 71.9789 57.275 68.2988C53.0456 64.6187 47.1428 62.7721 39.5404 62.7721H34.4282C30.4755 62.7721 28.4991 61.1761 28.4991 57.9972C28.4991 57.6147 28.5782 56.9552 28.7363 56.0187L28.9735 54.7392L28.9603 54.7129Z" fill="white"/>
<path d="M143.405 55.0562C143.405 45.7439 141.231 39.1752 136.896 35.3764C132.548 31.5776 126.579 29.665 118.977 29.665H83.3893L69.6602 116.18H92.2171L96.407 89.8652C98.1066 90.5642 100.689 91.171 104.141 91.6722C107.593 92.1735 111.019 92.4241 114.431 92.4241C121.177 92.4241 127.106 90.1949 132.232 85.7234C137.344 81.2651 140.677 74.2216 142.232 64.5927C143.01 59.6992 143.392 56.5203 143.392 55.043M119.781 62.0206C119.399 64.8961 118.463 67.2967 116.987 69.2357C115.512 71.1746 113.575 72.1507 111.177 72.1507H99.2002L102.692 49.912H114.563C116.579 49.912 118.055 50.4792 118.977 51.6004C119.913 52.7215 120.374 54.6077 120.374 57.2458C120.374 58.2614 120.176 59.8442 119.794 62.0206" fill="white"/>
<path d="M143.892 116.193H166.449L180.178 29.678H157.608L143.892 116.193Z" fill="white"/>
<path d="M335.626 29.678L321.91 116.193H344.467L358.196 29.678H335.626Z" fill="white"/>
<path d="M420.991 35.1519C416.801 31.4982 410.517 29.678 402.15 29.678H368.183L354.454 116.193H377.024L381.794 86.3827H390.397L397.723 116.193H420.636L410.978 82.6631C413.297 81.344 415.392 79.9459 417.249 78.4686C419.107 76.9913 420.952 74.7226 422.77 71.6492C424.588 68.5891 425.853 64.6848 426.552 59.9495C427.013 57.1532 427.25 54.5943 427.25 52.2596C427.25 44.5038 425.155 38.7924 420.965 35.1387M403.863 58.6569C403.323 62.2314 402.387 64.7508 401.07 66.2281C399.752 67.7054 397.38 68.444 393.981 68.444H384.56L387.472 49.925H397.591C399.923 49.925 401.584 50.3866 402.598 51.3231C403.599 52.2596 404.113 53.6578 404.113 55.5176C404.113 56.8366 404.034 57.8918 403.876 58.6569" fill="white"/>
<path d="M458.964 95.695C455.314 95.695 453.496 94.1781 453.496 91.1575C453.496 90.5376 453.536 90.0364 453.615 89.6407L454.655 82.8873L481.284 81.9904C480.915 78.8775 480.704 75.7118 480.704 72.5066C480.704 69.3014 480.888 66.4259 481.231 63.4581L457.923 62.6403L458.74 57.1664C459.122 54.8317 459.82 53.1434 460.835 52.1013C461.836 51.0593 463.51 50.5317 465.842 50.5317H483.813C485.922 43.1584 489.057 36.2335 493.063 29.9022C481.244 29.8099 468.674 29.6912 462.35 29.6912C447.765 29.6912 439.358 36.9458 437.105 51.4682L430.017 96.0643C429.78 97.6999 429.661 99.1772 429.661 100.483C429.661 106.616 431.703 110.89 435.775 113.291C439.846 115.705 444.484 116.905 449.675 116.905C453.733 116.905 477.397 116.47 493.669 116.074C489.598 109.835 486.369 103.002 484.156 95.7214H458.977L458.964 95.695Z" fill="white"/>
<path d="M288.588 52.2071C289.629 51.1651 291.316 50.6375 293.648 50.6375H322.266L325.401 29.665H263.989C259.562 35.7853 256.018 42.5914 253.646 49.9384H265.188C265.149 50.1758 254.7 116.193 254.7 116.193H277.27L282.04 86.3829L311.119 85.2222L314.031 67.2967L285.189 66.2547L286.586 57.0611C286.902 54.8847 287.574 53.2755 288.628 52.2335" fill="white"/>
<path d="M190.429 29.678L187.175 49.9381H208.572L198.097 116.193H220.667L231.129 49.9381H242.829C244.95 42.7099 248.047 35.8906 252.013 29.678H190.429Z" fill="white"/>
<path d="M561.05 0C552.42 6.56873 542.485 15.2083 532.511 26.3277C523.604 36.2467 516.687 45.8756 511.351 54.3437C511.166 54.8185 509.19 59.9099 512.194 64.5133C514.618 68.233 519.296 70.0928 523.92 69.1035C534.975 63.1679 548.599 56.8894 564.66 51.5474C580.378 46.324 594.766 43.2243 606.967 41.3645C607.468 41.3645 612.659 41.4305 615.597 45.5986C618.166 49.2523 617.929 54.5151 614.846 58.4063C604.727 69.4201 592.184 81.5683 576.913 93.6373C564.37 103.556 552.261 111.616 541.233 118.171C538.545 119.728 535.238 119.701 532.63 118.092C528.809 115.718 528.69 111.299 528.69 111.022C528.69 106.405 529.322 98.7024 533.025 90.1419C536.002 83.2698 539.876 78.3367 542.735 75.2502C536.806 77.9278 526.938 83.3226 517.925 93.545C510.824 101.617 506.897 109.69 504.736 115.23C502.589 112.077 482.852 82.0431 495.276 47.6826C504.328 22.6608 524.777 10.9874 528.545 8.91658C541.8 1.59602 554.277 0.250614 561.05 0Z" fill="#BA2027"/>
<path d="M625.202 34.598C622.541 30.2716 618.588 24.8504 612.87 19.4952C608.693 15.5909 604.595 12.6759 601.077 10.5259C595.399 16.6725 587.678 23.8876 577.664 30.7465C569.535 36.3127 561.814 40.3226 555.186 43.2376C557.703 40.3885 560.325 37.1833 562.947 33.6088C565.45 30.2057 567.637 26.9081 569.535 23.782C570.194 22.0937 569.587 20.1943 568.138 19.2314C566.834 18.3741 565.068 18.44 563.777 19.4161C558.599 23.7425 553.184 28.6097 547.663 34.0704C541.773 39.8873 536.529 45.5987 531.918 51.0462C544.501 46.7462 560.061 42.2747 577.73 39.0959C577.73 39.0959 599.799 35.1256 619.379 34.664C620.485 34.6376 621.592 34.6244 621.592 34.6244C622.923 34.6112 624.135 34.598 625.202 34.598Z" fill="#BA2027"/>
<path d="M634.254 57.1929C622.053 70.5809 605.808 86.185 584.977 101.38C563.751 116.852 543.552 127.668 526.845 135.226C551.062 149.089 580.984 148.153 603.805 132.799C628.154 116.417 640.262 86.4488 634.254 57.2061" fill="#BA2027"/>
</g>
</svg>
